<?xml version="1.0" encoding="utf-8"?>
<!-- Generator: Adobe Illustrator 25.3.1, SVG Export Plug-In . SVG Version: 6.00 Build 0)  -->
<svg version="1.1" id="katman_1" xmlns="http://www.w3.org/2000/svg" xmlns:xlink="http://www.w3.org/1999/xlink" x="0px" y="0px"
	 viewBox="0 0 1200 1200" style="enable-background:new 0 0 1200 1200;" xml:space="preserve">
<style type="text/css">
	.st0{fill:#701D2F;}
	.st1{fill:#FFFFFF;}
</style>
<rect class="st0" width="1200" height="1200"/>
<g>
	<path class="st1" d="M113.7,667.02c0-26.78,0-31.58-0.34-37.08c-0.34-5.84-1.71-8.58-7.33-9.78c-1.36-0.34-4.26-0.51-5.8-0.51
		c-0.68,0-1.36-0.34-1.36-1.03c0-1.03,0.85-1.37,2.73-1.37c7.67,0,17.73,0.52,18.75,0.52c1.53,0,11.42-0.52,16.54-0.52
		c1.88,0,2.73,0.34,2.73,1.37c0,0.69-0.68,1.03-1.36,1.03c-1.19,0-2.22,0.17-4.26,0.51c-4.6,0.86-5.97,3.78-6.31,9.78
		c-0.34,5.49-0.34,10.3-0.34,37.08v10.3h0.68c2.9-3.26,33.76-34.84,39.89-41.54c4.77-4.98,9.21-9.44,9.21-12.36
		c0-2.06-0.85-3.09-2.22-3.6c-0.85-0.34-1.53-0.69-1.53-1.37c0-0.86,0.85-1.2,2.05-1.2c3.41,0,8.69,0.52,12.79,0.52
		c0.85,0,12.1-0.52,16.37-0.52c1.88,0,2.56,0.34,2.56,1.2s-0.34,1.2-1.7,1.2c-2.56,0-6.14,0.86-9.55,2.4
		c-6.99,3.09-10.74,7.38-18.41,14.76c-4.26,4.12-33.93,33.3-37.51,37.59c4.43,4.98,39.89,41.88,46.88,48.4
		c14.32,13.39,17.22,16.13,25.4,19.57c4.43,1.89,9.38,2.23,10.57,2.23s2.22,0.34,2.22,1.03c0,0.86-0.85,1.37-3.75,1.37h-8.69
		c-4.77,0-8.01,0-11.76-0.34c-9.04-0.86-13.3-4.63-20.63-10.47c-7.67-6.35-43.81-45.66-52-55.79h-0.85v16.82
		c0,16.48,0,30.04,0.85,37.25c0.51,4.98,1.53,8.75,6.65,9.44c2.39,0.34,5.11,0.69,6.65,0.69c1.02,0,1.36,0.51,1.36,1.03
		c0,0.86-0.85,1.37-2.73,1.37c-8.35,0-18.24-0.51-19.61-0.51s-11.25,0.51-16.37,0.51c-1.88,0-2.73-0.34-2.73-1.37
		c0-0.51,0.34-1.03,1.36-1.03c1.53,0,3.58-0.34,5.11-0.69c3.41-0.69,4.26-4.46,4.94-9.44c0.85-7.21,0.85-20.77,0.85-37.25V667.02z"
		/>
</g>
<g>
	<path class="st1" d="M342.11,667.02c0-26.78,0-31.58-0.34-37.08c-0.34-5.84-1.71-8.58-7.33-9.78c-1.36-0.34-4.26-0.51-5.8-0.51
		c-0.68,0-1.36-0.34-1.36-1.03c0-1.03,0.85-1.37,2.73-1.37c7.67,0,18.41,0.52,19.26,0.52c1.88,0,14.83-0.52,20.12-0.52
		c10.74,0,22.16,1.03,31.2,7.55c4.26,3.09,11.76,11.5,11.76,23.34c0,12.7-5.29,25.4-20.63,39.65c13.98,18.02,25.57,33.3,35.46,43.94
		c9.21,9.78,16.54,11.67,20.8,12.36c3.24,0.52,5.63,0.52,6.65,0.52c0.85,0,1.53,0.51,1.53,1.03c0,1.03-1.02,1.37-4.09,1.37h-12.1
		c-9.55,0-13.81-0.86-18.24-3.26c-7.33-3.95-13.3-12.36-23.02-25.23c-7.16-9.44-15.17-20.94-18.58-25.4
		c-0.68-0.69-1.19-1.03-2.22-1.03l-20.97-0.34c-0.85,0-1.19,0.51-1.19,1.37v4.12c0,16.48,0,30.04,0.85,37.25
		c0.51,4.98,1.53,8.75,6.65,9.44c2.39,0.34,6.14,0.69,7.67,0.69c1.02,0,1.36,0.51,1.36,1.03c0,0.86-0.85,1.37-2.73,1.37
		c-9.38,0-20.12-0.51-20.97-0.51c-0.17,0-10.91,0.51-16.03,0.51c-1.88,0-2.73-0.34-2.73-1.37c0-0.51,0.34-1.03,1.36-1.03
		c1.53,0,3.58-0.34,5.11-0.69c3.41-0.69,4.26-4.46,4.94-9.44c0.85-7.21,0.85-20.77,0.85-37.25V667.02z M355.75,681.95
		c0,0.86,0.34,1.54,1.19,2.06c2.56,1.54,10.4,2.75,17.9,2.75c4.09,0,8.87-0.52,12.79-3.26c5.97-4.12,10.4-13.39,10.4-26.43
		c0-21.46-11.25-34.33-29.49-34.33c-5.11,0-9.72,0.51-11.42,1.03c-0.85,0.34-1.36,1.03-1.36,2.06V681.95z"/>
</g>
<g>
	<path class="st1" d="M585.3,667.02c0-26.78,0-31.58-0.34-37.08c-0.34-5.84-1.71-8.58-7.33-9.78c-1.36-0.34-4.26-0.51-5.8-0.51
		c-0.68,0-1.36-0.34-1.36-1.03c0-1.03,0.85-1.37,2.73-1.37c7.67,0,18.41,0.52,19.26,0.52c2.05,0,12.79-0.52,23.02-0.52
		c16.88,0,48.08-1.54,68.37,19.57c8.52,8.93,16.54,23.17,16.54,43.6c0,21.63-8.87,38.28-18.41,48.4
		c-7.33,7.72-22.67,19.74-51.66,19.74c-7.33,0-16.37-0.51-23.7-1.03c-7.5-0.52-13.3-1.03-14.15-1.03c-0.34,0-3.24,0-6.82,0.17
		c-3.41,0-7.33,0.34-9.89,0.34c-1.88,0-2.73-0.34-2.73-1.37c0-0.51,0.34-1.03,1.36-1.03c1.53,0,3.58-0.34,5.11-0.69
		c3.41-0.69,4.26-4.46,4.94-9.44c0.85-7.21,0.85-20.77,0.85-37.25V667.02z M599.62,685.56c0,18.19,0.17,33.99,0.34,37.25
		c0.17,4.29,0.51,11.16,1.88,13.05c2.22,3.26,8.87,6.87,28.98,6.87c15.86,0,30.52-5.84,40.58-15.96
		c8.87-8.75,13.64-25.23,13.64-41.02c0-21.8-9.38-35.87-16.37-43.25c-16.03-16.99-35.46-19.4-55.75-19.4
		c-3.41,0-9.72,0.51-11.08,1.2c-1.53,0.69-2.05,1.54-2.05,3.43c-0.17,5.84-0.17,23.34-0.17,36.56V685.56z"/>
</g>
<g>
	<path class="st1" d="M271.39,660.08c1.49-3.82,2.03-4.5,2.84-4.5c1.22,0,1.63,1.64,2.84,4.23c2.17,4.91,21.27,52.77,28.58,70.37
		c4.33,10.36,7.59,11.86,10.16,12.68c1.76,0.54,3.52,0.68,4.74,0.68c0.68,0,1.49,0.27,1.49,0.95c0,0.68-1.35,0.96-2.71,0.96
		c-1.76,0-10.56,0-18.83-0.27c-2.3-0.14-4.2-0.14-4.2-0.82c0-0.55,0.27-0.55,0.81-0.82c0.68-0.27,1.9-1.23,1.08-3.14l-10.7-26.59
		c-0.27-0.54-0.41-0.68-1.08-0.68h-27.5c-0.54,0-0.95,0.27-1.22,0.96l-6.77,18.55c-1.08,2.86-1.76,5.73-1.76,7.77
		c0,2.32,2.03,3.14,4.06,3.14h1.08c0.95,0,1.22,0.41,1.22,0.95c0,0.68-0.68,0.96-1.76,0.96c-2.84,0-9.35-0.41-10.7-0.41
		c-1.22,0-7.18,0.41-12.06,0.41c-1.49,0-2.3-0.27-2.3-0.96c0-0.54,0.54-0.95,1.08-0.95c0.81,0,2.57-0.14,3.52-0.27
		c5.42-0.68,7.72-4.77,10.02-10.64L271.39,660.08z M284.66,708.35c0.54,0,0.54-0.27,0.41-0.82l-11.78-31.77
		c-0.68-1.77-1.35-1.77-2.03,0l-11.11,31.77c-0.14,0.54,0,0.82,0.41,0.82H284.66z"/>
</g>
<g>
	<path class="st1" d="M511.68,660.08c1.49-3.82,2.03-4.5,2.84-4.5c1.22,0,1.63,1.64,2.84,4.23c2.17,4.91,21.27,52.77,28.58,70.37
		c4.33,10.36,7.59,11.86,10.16,12.68c1.76,0.54,3.52,0.68,4.74,0.68c0.68,0,1.49,0.27,1.49,0.95c0,0.68-1.35,0.96-2.71,0.96
		c-1.76,0-10.56,0-18.83-0.27c-2.3-0.14-4.2-0.14-4.2-0.82c0-0.55,0.27-0.55,0.81-0.82c0.68-0.27,1.9-1.23,1.08-3.14l-10.7-26.59
		c-0.27-0.54-0.41-0.68-1.08-0.68h-27.5c-0.54,0-0.95,0.27-1.22,0.96l-6.77,18.55c-1.08,2.86-1.76,5.73-1.76,7.77
		c0,2.32,2.03,3.14,4.06,3.14h1.08c0.95,0,1.22,0.41,1.22,0.95c0,0.68-0.68,0.96-1.76,0.96c-2.84,0-9.35-0.41-10.7-0.41
		c-1.22,0-7.18,0.41-12.06,0.41c-1.49,0-2.3-0.27-2.3-0.96c0-0.54,0.54-0.95,1.08-0.95c0.81,0,2.57-0.14,3.52-0.27
		c5.42-0.68,7.72-4.77,10.02-10.64L511.68,660.08z M524.95,708.35c0.54,0,0.54-0.27,0.41-0.82l-11.78-31.77
		c-0.68-1.77-1.35-1.77-2.03,0l-11.11,31.77c-0.14,0.54,0,0.82,0.41,0.82H524.95z"/>
</g>
<g>
	<path class="st1" d="M730.81,681.9c0-21.27,0-25.09-0.27-29.46c-0.27-4.64-1.35-6.82-5.82-7.77c-1.08-0.27-3.39-0.41-4.61-0.41
		c-0.54,0-1.08-0.27-1.08-0.82c0-0.82,0.68-1.09,2.17-1.09c3.12,0,6.77,0,9.75,0.14l5.55,0.27c0.95,0,27.9,0,31.02-0.14
		c2.57-0.14,4.74-0.41,5.82-0.68c0.68-0.14,1.22-0.68,1.9-0.68c0.41,0,0.54,0.55,0.54,1.23c0,0.96-0.68,2.59-1.08,6.41
		c-0.14,1.36-0.41,7.36-0.68,9c-0.13,0.68-0.41,1.5-0.95,1.5c-0.81,0-1.08-0.68-1.08-1.77c0-0.95-0.14-3.27-0.81-4.91
		c-0.95-2.18-2.3-3.82-9.62-4.64c-2.3-0.27-17.07-0.41-18.56-0.41c-0.54,0-0.81,0.41-0.81,1.36v37.64c0,0.95,0.14,1.36,0.81,1.36
		c1.76,0,18.42,0,21.54-0.27c3.25-0.27,5.15-0.55,6.37-1.91c0.95-1.09,1.49-1.77,2.03-1.77c0.41,0,0.68,0.27,0.68,1.09
		s-0.68,3.14-1.08,7.64c-0.27,2.73-0.54,7.77-0.54,8.73c0,1.09,0,2.59-0.95,2.59c-0.68,0-0.95-0.55-0.95-1.23
		c0-1.36,0-2.73-0.54-4.5c-0.54-1.91-1.76-4.23-7.04-4.77c-3.66-0.41-17.07-0.68-19.37-0.68c-0.68,0-0.95,0.41-0.95,0.96v12
		c0,4.64-0.13,20.46,0,23.32c0.41,9.41,2.44,11.18,15.71,11.18c3.52,0,9.48,0,13-1.5c3.52-1.5,5.15-4.23,6.1-9.82
		c0.27-1.5,0.54-2.05,1.22-2.05c0.81,0,0.81,1.09,0.81,2.05c0,1.09-1.08,10.36-1.76,13.23c-0.95,3.55-2.03,3.55-7.31,3.55
		c-10.16,0-17.61-0.27-22.89-0.41c-5.28-0.27-8.53-0.41-10.57-0.41c-0.27,0-2.57,0-5.42,0.14c-2.71,0-5.83,0.27-7.86,0.27
		c-1.49,0-2.17-0.27-2.17-1.09c0-0.41,0.27-0.82,1.08-0.82c1.22,0,2.84-0.27,4.06-0.55c2.71-0.54,3.39-3.54,3.93-7.5
		c0.68-5.73,0.68-16.5,0.68-29.59V681.9z"/>
	<path class="st1" d="M813.62,681.9c0-21.27,0-25.09-0.27-29.46c-0.27-4.64-1.35-6.82-5.82-7.77c-1.08-0.27-3.39-0.41-4.61-0.41
		c-0.54,0-1.08-0.27-1.08-0.82c0-0.82,0.68-1.09,2.17-1.09c6.1,0,14.63,0.41,15.31,0.41c1.49,0,11.78-0.41,15.98-0.41
		c8.53,0,17.61,0.82,24.79,6c3.39,2.45,9.35,9.14,9.35,18.55c0,10.09-4.2,20.18-16.39,31.5c11.11,14.32,20.32,26.46,28.17,34.91
		c7.31,7.77,13.14,9.27,16.53,9.82c2.57,0.41,4.47,0.41,5.28,0.41c0.68,0,1.22,0.41,1.22,0.82c0,0.82-0.81,1.09-3.25,1.09h-9.62
		c-7.59,0-10.97-0.68-14.49-2.59c-5.83-3.14-10.57-9.82-18.29-20.05c-5.69-7.5-12.06-16.64-14.76-20.18
		c-0.54-0.55-0.95-0.82-1.76-0.82l-16.66-0.27c-0.68,0-0.95,0.41-0.95,1.09v3.27c0,13.09,0,23.86,0.68,29.59
		c0.41,3.96,1.22,6.96,5.28,7.5c1.9,0.27,4.88,0.55,6.1,0.55c0.81,0,1.08,0.41,1.08,0.82c0,0.68-0.68,1.09-2.17,1.09
		c-7.45,0-15.98-0.41-16.66-0.41c-0.14,0-8.67,0.41-12.73,0.41c-1.49,0-2.17-0.27-2.17-1.09c0-0.41,0.27-0.82,1.08-0.82
		c1.22,0,2.84-0.27,4.06-0.55c2.71-0.54,3.39-3.54,3.93-7.5c0.68-5.73,0.68-16.5,0.68-29.59V681.9z M824.46,693.76
		c0,0.68,0.27,1.23,0.95,1.64c2.03,1.23,8.26,2.18,14.22,2.18c3.25,0,7.04-0.41,10.16-2.59c4.74-3.27,8.26-10.64,8.26-21
		c0-17.05-8.94-27.27-23.43-27.27c-4.06,0-7.72,0.41-9.08,0.82c-0.68,0.27-1.08,0.82-1.08,1.64V693.76z"/>
	<path class="st1" d="M940.73,705.9c0,13.09,0,23.86,0.68,29.59c0.41,3.96,1.22,6.96,5.28,7.5c1.9,0.27,4.88,0.55,6.1,0.55
		c0.81,0,1.08,0.41,1.08,0.82c0,0.68-0.68,1.09-2.17,1.09c-7.45,0-15.98-0.41-16.66-0.41c-0.68,0-9.21,0.41-13.27,0.41
		c-1.49,0-2.17-0.27-2.17-1.09c0-0.41,0.27-0.82,1.08-0.82c1.22,0,2.84-0.27,4.06-0.55c2.71-0.54,3.39-3.54,3.93-7.5
		c0.68-5.73,0.68-16.5,0.68-29.59v-24c0-21.27,0-25.09-0.27-29.46c-0.27-4.64-1.63-6.96-4.61-7.64c-1.49-0.41-3.25-0.54-4.2-0.54
		c-0.54,0-1.08-0.27-1.08-0.82c0-0.82,0.68-1.09,2.17-1.09c4.47,0,13,0.41,13.68,0.41c0.68,0,9.21-0.41,13.27-0.41
		c1.49,0,2.17,0.27,2.17,1.09c0,0.54-0.54,0.82-1.08,0.82c-0.95,0-1.76,0.14-3.39,0.41c-3.66,0.68-4.74,3-5.01,7.77
		c-0.27,4.36-0.27,8.18-0.27,29.46V705.9z M928.14,624.89c0-3,2.03-7.09,6.91-7.09c3.93,0,7.04,2.59,7.04,6.68
		c0,4.09-2.84,7.36-7.04,7.36C930.17,631.85,928.14,628.03,928.14,624.89z"/>
	<path class="st1" d="M1000.75,706.17c0,20.05,0.54,28.77,2.98,31.23c2.17,2.18,5.69,3.14,16.25,3.14c7.18,0,13.14-0.14,16.39-4.09
		c1.76-2.18,3.12-5.59,3.52-8.18c0.14-1.09,0.41-1.77,1.22-1.77c0.68,0,0.81,0.54,0.81,2.04c0,1.5-0.95,9.68-2.03,13.64
		c-0.95,3.14-1.35,3.68-8.53,3.68c-9.75,0-16.8-0.27-22.49-0.41c-5.69-0.27-9.89-0.41-13.82-0.41c-0.54,0-2.84,0.14-5.55,0.14
		c-2.71,0.14-5.69,0.27-7.72,0.27c-1.49,0-2.17-0.27-2.17-1.09c0-0.41,0.27-0.82,1.08-0.82c1.22,0,2.84-0.27,4.06-0.55
		c2.71-0.54,3.39-3.54,3.93-7.5c0.68-5.73,0.68-16.5,0.68-29.59v-24c0-21.27,0-25.09-0.27-29.46c-0.27-4.64-1.35-6.82-5.82-7.77
		c-1.08-0.27-3.39-0.41-4.61-0.41c-0.54,0-1.08-0.27-1.08-0.82c0-0.82,0.68-1.09,2.17-1.09c6.1,0,14.63,0.41,15.31,0.41
		c0.68,0,10.57-0.41,14.63-0.41c1.49,0,2.17,0.27,2.17,1.09c0,0.54-0.54,0.82-1.08,0.82c-0.95,0-2.84,0.14-4.47,0.41
		c-3.93,0.68-5.01,3-5.28,7.77c-0.27,4.36-0.27,8.18-0.27,29.46V706.17z"/>
	<path class="st1" d="M1084.41,705.9c0,13.09,0,23.86,0.68,29.59c0.41,3.96,1.22,6.96,5.28,7.5c1.9,0.27,4.88,0.55,6.1,0.55
		c0.81,0,1.08,0.41,1.08,0.82c0,0.68-0.68,1.09-2.17,1.09c-7.45,0-15.98-0.41-16.66-0.41c-0.68,0-9.21,0.41-13.27,0.41
		c-1.49,0-2.17-0.27-2.17-1.09c0-0.41,0.27-0.82,1.08-0.82c1.22,0,2.84-0.27,4.06-0.55c2.71-0.54,3.39-3.54,3.93-7.5
		c0.68-5.73,0.68-16.5,0.68-29.59v-24c0-21.27,0-25.09-0.27-29.46c-0.27-4.64-1.63-6.96-4.61-7.64c-1.49-0.41-3.25-0.54-4.2-0.54
		c-0.54,0-1.08-0.27-1.08-0.82c0-0.82,0.68-1.09,2.17-1.09c4.47,0,13,0.41,13.68,0.41c0.68,0,9.21-0.41,13.27-0.41
		c1.49,0,2.17,0.27,2.17,1.09c0,0.54-0.54,0.82-1.08,0.82c-0.95,0-1.76,0.14-3.39,0.41c-3.66,0.68-4.74,3-5.01,7.77
		c-0.27,4.36-0.27,8.18-0.27,29.46V705.9z M1071.81,624.89c0-3,2.03-7.09,6.91-7.09c3.93,0,7.04,2.59,7.04,6.68
		c0,4.09-2.84,7.36-7.04,7.36C1073.85,631.85,1071.81,628.03,1071.81,624.89z"/>
</g>
<g>
	<path class="st1" d="M549.25,475.76c3.97-3.62,8.01-7.19,11.98-10.83c9.01-8.27,18.25-16.3,27.34-24.49
		c2.12-1.91,4.26-3.79,6.38-5.7c2.46-2.2,5.03-4.14,6.24-7.37c2.24-5.95-2.69-11.26-5.41-15.83c-6.87-11.51-13.92-22.89-20.95-34.3
		c-0.74-1.2-2.02-4.48-3.26-5.24c0,0,5.82,3.53,11.55,3.15c12.15,18.06,24.49,35.97,36.23,54.31c6.22,9.72,13.69,19.34,2.72,28.95
		c-13.77,12.06-27.54,24.12-41.31,36.18c-7.97,6.98-27.39,18.02-19.03,31.03c6.88,10.7,27.26,43.92,27.26,43.92
		s-11.82-7.4-14.26-4.97c0,0-36.73-57.91-37.06-58.43c-0.95-1.5-2.11-2.78-2.91-4.42c-5.11-10.45,5.28-18.74,12.54-24.45
		C547.94,476.8,548.64,476.32,549.25,475.76z"/>
	<path class="st1" d="M593.23,372.11l10.89-0.04c0,0,49.88,71.17,50.07,71.45c9.29,13.2,15.44,31.21,2.72,44.39l-60.83,55.48
		c0,0-5.72,5.18-5.41,12.05l-12.68-22.59c0,0-7.48-9.72-0.05-16.9c0,0,55.1-49.08,55.22-49.18c15.83-14.11,2.53-32.19-6.68-45.49
		c-8.97-12.98-18.06-25.87-27.07-38.83c-2.4-3.44-4.79-6.89-7.19-10.33H593.23z"/>
	<path class="st1" d="M564.87,564.47l-10.89-0.2c0,0-48.36-72.22-48.55-72.49c-9.01-13.39-14.78-31.53-1.79-44.44l61.99-54.18
		c0,0,5.82-5.05,5.67-11.93l12.2,22.85c0,0,7.27,9.87-0.31,16.9c0,0-56.13,47.91-56.25,48.01c-16.13,13.76-3.21,32.13,5.72,45.63
		c8.7,13.16,17.51,26.25,26.24,39.38c2.32,3.49,4.65,6.99,6.97,10.49L564.87,564.47z"/>
</g>
<rect x="96.35" y="797.64" class="st1" width="284.68" height="4.29"/>
<rect x="813.07" y="795.5" class="st1" width="284.68" height="4.29"/>
<g>
	<path class="st1" d="M412.64,799.75l-3.16-1.69c-1.98-1.06-3.39-2.11-4.23-3.14s-1.26-2.21-1.26-3.55c0-2.01,0.79-3.64,2.38-4.9
		c1.59-1.25,3.65-1.88,6.18-1.88c2.42,0,4.65,0.6,6.67,1.79v4.15c-2.09-1.77-4.34-2.65-6.75-2.65c-1.36,0-2.47,0.28-3.34,0.83
		c-0.87,0.55-1.31,1.26-1.31,2.12c0,0.76,0.32,1.48,0.96,2.15c0.64,0.67,1.68,1.37,3.1,2.1l3.17,1.65c3.54,1.86,5.31,4.22,5.31,7.1
		c0,2.05-0.78,3.71-2.34,4.99c-1.56,1.28-3.58,1.92-6.08,1.92c-2.87,0-5.48-0.77-7.83-2.32v-4.64c2.24,2.5,4.84,3.75,7.79,3.75
		c1.3,0,2.38-0.32,3.25-0.96c0.87-0.64,1.3-1.43,1.3-2.39C416.46,802.61,415.19,801.14,412.64,799.75z M409.86,820.99v-0.69
		c1.16-0.91,1.75-2.17,1.77-3.76c-1.47-0.39-2.2-1.19-2.2-2.39c0-0.65,0.25-1.21,0.75-1.7c0.5-0.49,1.1-0.73,1.81-0.73
		c0.9,0,1.61,0.35,2.12,1.05s0.77,1.53,0.77,2.47c0,1.24-0.43,2.41-1.29,3.5C412.72,819.83,411.48,820.58,409.86,820.99z"/>
	<path class="st1" d="M431.63,781.29h-4.42v-3.89h4.42V781.29z M431.41,810.44h-4v-27.28h4V810.44z"/>
	<path class="st1" d="M440.12,810.44v-25.52h7.27c2.94,0,5.27,0.64,6.99,1.92c1.72,1.28,2.59,3.01,2.59,5.19
		c0,1.49-0.42,2.77-1.27,3.85s-2.06,1.89-3.63,2.43c0.93,0.54,1.83,1.27,2.72,2.19c0.89,0.93,2.13,2.54,3.74,4.84
		c1.01,1.45,1.82,2.54,2.43,3.27l1.54,1.83h-4.94l-1.27-1.68c-0.04-0.06-0.12-0.16-0.25-0.31l-0.81-1l-1.29-1.86l-1.39-1.99
		c-0.86-1.05-1.64-1.88-2.36-2.5c-0.71-0.62-1.36-1.07-1.93-1.34c-0.58-0.27-1.54-0.41-2.9-0.41h-1.08v11.11H440.12z M445.52,788.02
		h-1.25v8.06h1.58c2.1,0,3.55-0.16,4.33-0.48c0.78-0.32,1.39-0.79,1.83-1.43c0.44-0.64,0.65-1.37,0.65-2.18
		c0-0.8-0.24-1.53-0.73-2.18c-0.48-0.65-1.17-1.11-2.05-1.38C449.01,788.16,447.56,788.02,445.52,788.02z"/>
	<path class="st1" d="M484.53,784.92h5.19l-12.59,12.11l15.68,13.41h-5.67l-14.83-12.6v12.6h-4.15v-25.52h4.15v11.67L484.53,784.92z
		"/>
	<path class="st1" d="M498.46,784.92h16.45v3.25h-12.3v7.78h11.88v3.27h-11.88v7.93h12.69v3.25h-16.84V784.92z"/>
	<path class="st1" d="M520.14,784.88h24.24v3.25h-10.11v22.3h-4.17v-22.3h-9.95V784.88z"/>
	<path class="st1" d="M550.37,784.92h4.15v22.19h13.06v3.32h-17.22V784.92z"/>
	<path class="st1" d="M573.43,784.92h16.45v3.25h-12.3v7.78h11.88v3.27h-11.88v7.93h12.69v3.25h-16.84V784.92z"/>
	<path class="st1" d="M597.46,810.44v-25.52h7.27c2.94,0,5.27,0.64,6.99,1.92c1.72,1.28,2.59,3.01,2.59,5.19
		c0,1.49-0.42,2.77-1.27,3.85s-2.06,1.89-3.63,2.43c0.93,0.54,1.83,1.27,2.72,2.19c0.89,0.93,2.13,2.54,3.74,4.84
		c1.01,1.45,1.82,2.54,2.43,3.27l1.54,1.83h-4.94l-1.26-1.68c-0.04-0.06-0.12-0.16-0.25-0.31l-0.81-1l-1.29-1.86l-1.39-1.99
		c-0.86-1.05-1.64-1.88-2.36-2.5c-0.71-0.62-1.36-1.07-1.93-1.34c-0.58-0.27-1.54-0.41-2.9-0.41h-1.08v11.11H597.46z M602.86,788.02
		h-1.25v8.06h1.58c2.1,0,3.55-0.16,4.33-0.48c0.78-0.32,1.39-0.79,1.83-1.43c0.44-0.64,0.65-1.37,0.65-2.18
		c0-0.8-0.24-1.53-0.73-2.18s-1.17-1.11-2.05-1.38C606.35,788.16,604.89,788.02,602.86,788.02z"/>
	<path class="st1" d="M651.37,797.87h9.74v10.81c-3.57,1.36-7.12,2.05-10.63,2.05c-4.8,0-8.64-1.23-11.52-3.7s-4.31-5.51-4.31-9.12
		c0-3.81,1.49-6.98,4.46-9.52c2.98-2.53,6.71-3.8,11.2-3.8c1.63,0,3.18,0.16,4.65,0.47c1.47,0.31,3.32,0.88,5.57,1.71v3.73
		c-3.46-1.77-6.9-2.65-10.3-2.65c-3.17,0-5.84,0.95-8.02,2.85s-3.26,4.23-3.26,7c0,2.9,1.09,5.27,3.26,7.1
		c2.17,1.84,4.97,2.76,8.39,2.76c1.66,0,3.65-0.33,5.96-1l0.39-0.11v-5.32h-5.59V797.87z"/>
	<path class="st1" d="M669.82,810.44v-25.52h7.27c2.93,0,5.26,0.64,6.99,1.92c1.72,1.28,2.59,3.01,2.59,5.19
		c0,1.49-0.42,2.77-1.27,3.85c-0.84,1.08-2.06,1.89-3.63,2.43c0.93,0.54,1.83,1.27,2.72,2.19c0.89,0.93,2.13,2.54,3.74,4.84
		c1.01,1.45,1.82,2.54,2.43,3.27l1.54,1.83h-4.94l-1.27-1.68c-0.04-0.06-0.12-0.16-0.25-0.31l-0.81-1l-1.29-1.86l-1.39-1.99
		c-0.86-1.05-1.64-1.88-2.36-2.5c-0.71-0.62-1.36-1.07-1.93-1.34s-1.54-0.41-2.9-0.41h-1.08v11.11H669.82z M675.22,788.02h-1.25
		v8.06h1.58c2.1,0,3.55-0.16,4.33-0.48c0.78-0.32,1.39-0.79,1.83-1.43c0.44-0.64,0.65-1.37,0.65-2.18c0-0.8-0.24-1.53-0.73-2.18
		s-1.17-1.11-2.05-1.38C678.71,788.16,677.26,788.02,675.22,788.02z"/>
	<path class="st1" d="M717,784.92h4.17v14.49c0,1.96-0.16,3.44-0.49,4.44c-0.33,1-0.73,1.83-1.21,2.49s-1.06,1.26-1.75,1.78
		c-2.3,1.74-5.3,2.61-9.01,2.61c-3.78,0-6.81-0.86-9.1-2.59c-0.69-0.54-1.28-1.13-1.75-1.8s-0.87-1.48-1.18-2.44
		s-0.47-2.47-0.47-4.53v-14.45h4.17v14.49c0,2.4,0.31,4.07,0.93,5s1.57,1.69,2.85,2.26c1.27,0.57,2.78,0.85,4.51,0.85
		c2.46,0,4.47-0.57,6.02-1.7c0.82-0.61,1.41-1.33,1.77-2.16c0.36-0.83,0.54-2.25,0.54-4.26V784.92z"/>
	<path class="st1" d="M739.65,810.44h-9.82v-25.52h7.6c2.4,0,4.26,0.28,5.61,0.85c1.34,0.57,2.37,1.35,3.07,2.34
		c0.71,0.99,1.06,2.14,1.06,3.44c0,2.51-1.47,4.3-4.42,5.39c2.12,0.35,3.8,1.12,5.06,2.3c1.25,1.18,1.88,2.59,1.88,4.24
		c0,1.3-0.38,2.47-1.14,3.49c-0.76,1.02-1.88,1.86-3.35,2.5S741.86,810.44,739.65,810.44z M737.55,788.17h-3.57v7.67h2.76
		c2.22,0,3.79-0.37,4.73-1.11c0.93-0.74,1.4-1.71,1.4-2.89C742.87,789.39,741.09,788.17,737.55,788.17z M737.86,799.09h-3.88v8.09
		h4.09c2.27,0,3.81-0.16,4.62-0.47c0.81-0.31,1.46-0.79,1.95-1.45c0.49-0.66,0.74-1.36,0.74-2.12c0-0.78-0.26-1.49-0.78-2.14
		c-0.52-0.65-1.26-1.13-2.21-1.44C741.43,799.25,739.92,799.09,737.86,799.09z"/>
	<path class="st1" d="M776.72,784.92h4.17v14.49c0,1.96-0.16,3.44-0.49,4.44c-0.33,1-0.73,1.83-1.21,2.49s-1.06,1.26-1.75,1.78
		c-2.3,1.74-5.3,2.61-9.01,2.61c-3.78,0-6.81-0.86-9.1-2.59c-0.69-0.54-1.28-1.13-1.75-1.8s-0.87-1.48-1.18-2.44
		s-0.47-2.47-0.47-4.53v-14.45h4.17v14.49c0,2.4,0.31,4.07,0.93,5s1.57,1.69,2.85,2.26c1.27,0.57,2.78,0.85,4.51,0.85
		c2.46,0,4.47-0.57,6.02-1.7c0.82-0.61,1.41-1.33,1.77-2.16c0.36-0.83,0.54-2.25,0.54-4.26V784.92z"/>
</g>
</svg>
